<svg width="149" height="42" viewBox="0 0 149 42" fill="none" xmlns="http://www.w3.org/2000/svg">
<path d="M22.3796 34.4891C22.3796 40.2117 18.3431 42 9.70806 42C6.74454 42 2.86132 41.438 1.073 40.4161V35.4088C3.32118 36.2263 6.79564 36.635 10.5256 36.635C13.8979 36.635 15.1241 36.3285 15.1241 35.5621C15.1241 32.854 0 35.8175 0 28.0511C0 26.2116 0.970806 24.0146 2.96351 22.1751C1.78833 20.9999 1.073 19.4671 1.073 17.7299C1.073 14.7152 2.96351 12.2116 6.43797 11.1386L20.2847 6.94879L21.8176 12.0583L18.4453 12.8247C20.0803 14.1021 21.0512 15.8393 21.0512 17.8831C21.0512 22.124 17.0657 24.8832 11.0876 24.8832C9.50368 24.8832 8.02192 24.6788 6.74454 24.27C6.64235 24.5766 6.59126 24.8832 6.59126 25.2408C6.59126 28.7153 22.3796 24.8832 22.3796 34.4891ZM13.5913 17.7299C13.5913 16.3503 12.5694 15.4306 11.1387 15.4306C9.60587 15.4306 8.53287 16.4014 8.53287 17.8321C8.53287 19.2627 9.55477 20.2335 11.0876 20.2335C12.5694 20.1824 13.5913 19.1605 13.5913 17.7299Z" fill="#0ECF97"/>
<path d="M24.1167 4.29199C24.1167 1.78833 25.905 0 28.4087 0C30.9123 0 32.7518 1.78833 32.7518 4.29199C32.7518 6.79565 30.9123 8.58398 28.4087 8.58398C25.905 8.58398 24.1167 6.79565 24.1167 4.29199ZM32.1386 11.0365V32.8542H24.5766V11.0365H32.1386Z" fill="#0ECF97"/>
<path d="M45.6789 10.2191V11.0366H51.2482V16.3505H45.6789V32.8542H38.1168V16.3505H35V11.0366H38.1168V9.60595C38.1168 4.64972 41.7445 1.37964 47.1095 1.37964C48.4891 1.37964 50.2263 1.53292 52.1168 1.89059V7.40886C51.2482 7.35777 50.4307 7.30667 49.6132 7.30667C47.2117 7.25558 45.6789 8.48186 45.6789 10.2191Z" fill="#0ECF97"/>
<path d="M69.6423 27.2336V32.7519C67.5474 33.1096 65.6569 33.2629 64.1752 33.2629C59.1679 33.2629 55.7956 30.095 55.7956 25.3942V16.3504H52.6277V11.0365H55.7956V6.79559L63.3576 4.6496V11.0365H69.438V16.3504H63.3576V24.1679C63.3576 26.0584 64.6861 27.3358 66.6277 27.3358C67.6496 27.3358 68.6204 27.2847 69.6423 27.2336Z" fill="#0ECF97"/>
<path d="M74.3943 2.14585L76.387 1.5838V32.854H74.3943V2.14585Z" fill="black"/>
<path d="M79.9639 22.3795C79.9639 15.8904 84.2048 11.5474 90.4894 11.5474C96.723 11.5474 100.964 15.8904 100.964 22.3795C100.964 28.9197 96.723 33.2628 90.4894 33.2628C84.2048 33.2628 79.9639 28.9197 79.9639 22.3795ZM98.869 22.3795C98.869 16.8613 95.4968 13.1824 90.4894 13.1824C85.431 13.1824 82.0588 16.9124 82.0588 22.3795C82.0588 27.8978 85.431 31.6277 90.4894 31.6277C95.5479 31.6277 98.869 27.8978 98.869 22.3795Z" fill="black"/>
<path d="M114.81 13.1825C109.548 13.1825 106.022 16.9125 106.022 22.3797C106.022 27.8979 109.548 31.6279 114.861 31.6279C116.752 31.6279 119.256 31.0658 121.197 30.2483V31.7812C119.46 32.5987 116.701 33.2118 114.299 33.2118C108.066 33.2118 103.876 28.8687 103.876 22.3286C103.876 15.8395 108.066 11.4964 114.299 11.4964C116.548 11.4964 119.153 12.0074 120.788 12.7738V14.3066C119.102 13.6424 116.701 13.1825 114.81 13.1825Z" fill="black"/>
<path d="M140.307 33.0074C139.642 33.0074 138.876 32.752 138.365 32.4965C136.168 32.9563 133.715 33.2629 131.569 33.2629C126.562 33.2629 123.343 30.8614 123.343 27.1826C123.343 23.4527 126.664 21.1023 131.825 21.1023C133.92 21.1023 136.27 21.3067 138.365 21.7154V19.314C138.365 15.4307 135.963 13.1314 131.825 13.1314C129.679 13.1314 127.226 13.5913 125.131 14.3577V12.8249C127.124 12.0074 129.73 11.4964 132.285 11.4964C137.394 11.4964 140.358 14.3066 140.358 19.0585V33.0074H140.307ZM132.182 31.679C134.277 31.679 136.526 31.4235 138.314 31.0147V23.2483C136.372 22.7373 134.124 22.5329 132.182 22.5329C128.095 22.5329 125.387 24.3724 125.387 27.1315C125.438 29.8906 128.095 31.679 132.182 31.679Z" fill="black"/>
<path d="M146.694 2.14597L148.687 1.58392V32.8541H146.694V2.14597Z" fill="black"/>
</svg>
