<svg width="16" height="17" viewBox="0 0 16 17" fill="none" xmlns="http://www.w3.org/2000/svg">
<path d="M13 6.99878C13 8.43315 12.5344 9.75815 11.75 10.8332L15.7063 14.7925C16.0969 15.1832 16.0969 15.8175 15.7063 16.2082C15.3156 16.5988 14.6812 16.5988 14.2906 16.2082L10.3344 12.2488C9.25938 13.0363 7.93437 13.4988 6.5 13.4988C2.90937 13.4988 0 10.5894 0 6.99878C0 3.40815 2.90937 0.498779 6.5 0.498779C10.0906 0.498779 13 3.40815 13 6.99878ZM6.5 11.4988C7.09095 11.4988 7.67611 11.3824 8.22208 11.1562C8.76804 10.9301 9.26412 10.5986 9.68198 10.1808C10.0998 9.7629 10.4313 9.26682 10.6575 8.72085C10.8836 8.17489 11 7.58973 11 6.99878C11 6.40783 10.8836 5.82267 10.6575 5.2767C10.4313 4.73074 10.0998 4.23466 9.68198 3.8168C9.26412 3.39894 8.76804 3.06747 8.22208 2.84132C7.67611 2.61518 7.09095 2.49878 6.5 2.49878C5.90905 2.49878 5.32389 2.61518 4.77792 2.84132C4.23196 3.06747 3.73588 3.39894 3.31802 3.8168C2.90016 4.23466 2.56869 4.73074 2.34254 5.2767C2.1164 5.82267 2 6.40783 2 6.99878C2 7.58973 2.1164 8.17489 2.34254 8.72085C2.56869 9.26682 2.90016 9.7629 3.31802 10.1808C3.73588 10.5986 4.23196 10.9301 4.77792 11.1562C5.32389 11.3824 5.90905 11.4988 6.5 11.4988Z" fill="black"/>
</svg>
