<svg width="17" height="22" viewBox="0 0 17 22" fill="none" xmlns="http://www.w3.org/2000/svg">
<path d="M14.475 8.27141C14.475 4.84653 11.6963 2.06785 8.27141 2.06785C4.84653 2.06785 2.06785 4.84653 2.06785 8.27141C2.06785 8.8056 2.26171 9.63274 2.72698 10.7356C3.17932 11.804 3.82122 12.9844 4.55789 14.1777C5.78568 16.168 7.20732 18.0894 8.27141 19.4593C9.3398 18.0894 10.7614 16.168 11.9849 14.1777C12.7216 12.9844 13.3635 11.804 13.8158 10.7356C14.2811 9.63274 14.475 8.8056 14.475 8.27141ZM16.5428 8.27141C16.5428 12.0366 11.5024 18.7399 9.29241 21.5057C8.76252 22.1648 7.78029 22.1648 7.2504 21.5057C5.04039 18.7399 0 12.0366 0 8.27141C0 3.7049 3.7049 0 8.27141 0C12.8379 0 16.5428 3.7049 16.5428 8.27141ZM9.64997 8.27141C9.64997 7.90579 9.50473 7.55514 9.2462 7.29661C8.98767 7.03808 8.63702 6.89284 8.27141 6.89284C7.90579 6.89284 7.55514 7.03808 7.29661 7.29661C7.03808 7.55514 6.89284 7.90579 6.89284 8.27141C6.89284 8.63702 7.03808 8.98767 7.29661 9.2462C7.55514 9.50473 7.90579 9.64997 8.27141 9.64997C8.63702 9.64997 8.98767 9.50473 9.2462 9.2462C9.50473 8.98767 9.64997 8.63702 9.64997 8.27141ZM4.82499 8.27141C4.82499 7.35736 5.18809 6.48075 5.83442 5.83442C6.48075 5.18809 7.35736 4.82499 8.27141 4.82499C9.18545 4.82499 10.0621 5.18809 10.7084 5.83442C11.3547 6.48075 11.7178 7.35736 11.7178 8.27141C11.7178 9.18545 11.3547 10.0621 10.7084 10.7084C10.0621 11.3547 9.18545 11.7178 8.27141 11.7178C7.35736 11.7178 6.48075 11.3547 5.83442 10.7084C5.18809 10.0621 4.82499 9.18545 4.82499 8.27141Z" fill="black"/>
</svg>
