<svg width="71" height="70" viewBox="0 0 71 70" fill="none" xmlns="http://www.w3.org/2000/svg">
<g clip-path="url(#clip0_51_1178)">
<path d="M1.79654 68.7031C3.52494 70.4315 6.26156 70.4315 7.98996 68.7031L25.2739 51.3471C30.027 54.8759 35.7883 56.8924 42.0537 56.8924C57.7533 56.8924 70.5002 44.1455 70.5002 28.4459C70.5002 12.7463 57.7533 -0.000610352 42.0537 -0.000610352C26.3542 -0.000610352 13.6072 12.7463 13.6072 28.4459C13.6072 34.7113 15.6237 40.5447 19.0805 45.2257L1.79654 62.5097C0.0681453 64.2381 0.0681453 67.0467 1.79654 68.7031ZM27.2904 25.4212C27.2904 21.3163 30.243 17.8595 34.276 17.1393C36.9406 16.7072 39.6772 17.5714 41.5496 19.4438L42.2698 20.164L42.99 19.4438C44.9344 17.5714 47.599 16.6352 50.2636 17.1393C54.2965 17.7875 57.2492 21.3163 57.2492 25.4212V25.7813C57.2492 28.2298 56.241 30.5344 54.4406 32.1908L43.9262 42.057C43.4941 42.4891 42.9179 42.7052 42.3418 42.7052C41.7657 42.7052 41.1895 42.4891 40.7575 42.057L30.099 32.1908C28.2986 30.5344 27.2904 28.2298 27.2904 25.7813V25.4212Z" fill="white"/>
</g>
<defs>
<clipPath id="clip0_51_1178">
<rect width="70" height="70" fill="white" transform="translate(0.5)"/>
</clipPath>
</defs>
</svg>
