<svg width="28" height="28" viewBox="0 0 28 28" fill="none" xmlns="http://www.w3.org/2000/svg">
<g clip-path="url(#clip0_51_1173)">
<path d="M11.6464 5.50038L18.3852 12.2391C18.7803 12.6342 19.0053 13.1775 19.0053 13.7372C19.0053 14.297 18.7803 14.8402 18.3852 15.2353L11.6464 21.9741C11.2952 22.3253 10.8233 22.5173 10.3294 22.5173C9.30321 22.5173 8.4691 21.6832 8.4691 20.6571V17.2493H1.44499C0.473689 17.2493 -0.311035 16.4646 -0.311035 15.4933V11.9812C-0.311035 11.0099 0.473689 10.2252 1.44499 10.2252H8.4691V6.8174C8.4691 5.79123 9.30321 4.95711 10.3294 4.95711C10.8233 4.95711 11.2952 5.15467 11.6464 5.50038ZM19.0053 22.5173H22.5173C23.4886 22.5173 24.2733 21.7326 24.2733 20.7613V6.71314C24.2733 5.74184 23.4886 4.95711 22.5173 4.95711H19.0053C18.034 4.95711 17.2492 4.17239 17.2492 3.20109C17.2492 2.22979 18.034 1.44507 19.0053 1.44507H22.5173C25.4257 1.44507 27.7854 3.80472 27.7854 6.71314V20.7613C27.7854 23.6697 25.4257 26.0294 22.5173 26.0294H19.0053C18.034 26.0294 17.2492 25.2447 17.2492 24.2734C17.2492 23.3021 18.034 22.5173 19.0053 22.5173Z" fill="black"/>
</g>
<defs>
<clipPath id="clip0_51_1173">
<rect width="28.0001" height="28" fill="white"/>
</clipPath>
</defs>
</svg>
