<svg width="24" height="19" viewBox="0 0 24 19" fill="none" xmlns="http://www.w3.org/2000/svg">
<path d="M8.49603 2.19368C9.24448 2.19368 9.96227 2.491 10.4915 3.02023C11.0207 3.54946 11.3181 4.26726 11.3181 5.01571C11.3181 5.76416 11.0207 6.48195 10.4915 7.01118C9.96227 7.54042 9.24448 7.83774 8.49603 7.83774C7.74758 7.83774 7.02978 7.54042 6.50055 7.01118C5.97131 6.48195 5.67399 5.76416 5.67399 5.01571C5.67399 4.26726 5.97131 3.54946 6.50055 3.02023C7.02978 2.491 7.74758 2.19368 8.49603 2.19368ZM8.49603 9.53096C9.69355 9.53096 10.842 9.05525 11.6888 8.20847C12.5356 7.3617 13.0113 6.21323 13.0113 5.01571C13.0113 3.81819 12.5356 2.66972 11.6888 1.82294C10.842 0.97617 9.69355 0.500458 8.49603 0.500458C7.29851 0.500458 6.15003 0.97617 5.30326 1.82294C4.45648 2.66972 3.98077 3.81819 3.98077 5.01571C3.98077 6.21323 4.45648 7.3617 5.30326 8.20847C6.15003 9.05525 7.29851 9.53096 8.49603 9.53096ZM6.88394 12.9174H10.1081C12.4257 12.9174 14.3447 14.6353 14.6586 16.8682H2.33341C2.64736 14.6353 4.56634 12.9174 6.88394 12.9174ZM6.88394 11.2242C3.40931 11.2242 0.59433 14.0392 0.59433 17.5138C0.59433 18.0923 1.06349 18.5615 1.64201 18.5615H15.35C15.9286 18.5615 16.3977 18.0923 16.3977 17.5138C16.3977 14.0392 13.5827 11.2242 10.1081 11.2242H6.88394ZM22.0877 18.5615C22.6873 18.5615 23.1706 18.0747 23.1706 17.4785C23.1706 14.3355 20.6237 11.7886 17.4807 11.7886H15.3148C15.1596 11.7886 15.0043 11.7956 14.8491 11.8062C16.4859 13.1678 17.5265 15.2173 17.5265 17.5138C17.5265 17.8948 17.4278 18.251 17.2584 18.5615H22.0877ZM15.8333 9.53096C18.0169 9.53096 19.7842 7.76366 19.7842 5.58011C19.7842 3.39657 18.0169 1.62927 15.8333 1.62927C14.9585 1.62927 14.1507 1.915 13.4946 2.39475C13.9073 3.17786 14.1401 4.07033 14.1401 5.01571C14.1401 6.27151 13.7309 7.43207 13.036 8.3704C13.7521 9.08649 14.7398 9.53096 15.8333 9.53096Z" fill="black"/>
</svg>
