<svg width="23" height="19" viewBox="0 0 23 19" fill="none" xmlns="http://www.w3.org/2000/svg">
<g clip-path="url(#clip0_20_32)">
<path d="M3.28458 13.2291L2.47324 15.9841L2.03582 17.4728C1.94764 17.7726 2.02877 18.0936 2.24748 18.3123C2.46618 18.531 2.78719 18.6122 3.08351 18.5275L4.57566 18.0866L7.33067 17.2752C7.76809 17.1482 8.1667 16.926 8.50887 16.6262C8.55826 16.5838 8.60411 16.538 8.64997 16.4921L19.3808 5.76486C20.1533 4.99233 20.2485 3.80354 19.67 2.92519C19.5889 2.80172 19.4901 2.68179 19.3808 2.57243L17.9909 1.17905C17.109 0.297168 15.6804 0.297168 14.7985 1.17905L4.06769 11.9098C3.70083 12.2767 3.43273 12.7318 3.28458 13.2291ZM4.90725 13.7054C4.96722 13.5078 5.06599 13.3244 5.20356 13.1692C5.22473 13.148 5.24236 13.1268 5.26353 13.1057L13.324 5.04877L15.511 7.23584L7.45413 15.2963C7.28834 15.4621 7.08021 15.5855 6.85445 15.6526L6.02901 15.896L4.09591 16.4639L4.66385 14.5308L4.90725 13.7054Z" fill="black"/>
</g>
<defs>
<clipPath id="clip0_20_32">
<rect width="22.4988" height="17.9991" fill="white" transform="translate(0.000579834 0.500458)"/>
</clipPath>
</defs>
</svg>
