<svg width="21" height="24" viewBox="0 0 21 24" fill="none" xmlns="http://www.w3.org/2000/svg">
<path d="M7.73932 3.0883C7.47828 2.95778 7.16433 2.97189 6.91387 3.1271C6.66342 3.28231 6.51526 3.55394 6.51526 3.84672V11.184C6.51526 11.2299 6.51879 11.2792 6.52584 11.3251C6.51879 11.371 6.51526 11.4168 6.51526 11.4662V14.7398C3.81669 15.3253 2 16.4224 2 17.6747C2 19.5443 6.04257 21.0611 11.0305 21.0611C16.0185 21.0611 20.061 19.5443 20.061 17.6747C20.061 15.8051 16.0185 14.2882 11.0305 14.2882C10.0463 14.2882 9.09742 14.3482 8.20848 14.4576V11.7061L15.0766 8.27026C15.3623 8.12563 15.5458 7.83284 15.5458 7.51184C15.5458 7.19083 15.3659 6.89804 15.0766 6.75341L7.73932 3.08477V3.0883ZM12.1593 17.6747C12.1593 18.2991 11.1469 18.8035 9.90171 18.8035C8.65648 18.8035 7.64408 18.2991 7.64408 17.6747C7.64408 17.0503 8.65648 16.5459 9.90171 16.5459C11.1469 16.5459 12.1593 17.0503 12.1593 17.6747Z" fill="white"/>
</svg>
