<svg width="21" height="24" viewBox="0 0 21 24" fill="none" xmlns="http://www.w3.org/2000/svg">
<path d="M3.12908 4.12901C3.12908 3.82963 3.24801 3.54252 3.45971 3.33082C3.6714 3.11913 3.95852 3.0002 4.2579 3.0002C4.55728 3.0002 4.8444 3.11913 5.05609 3.33082C5.26778 3.54252 5.38671 3.82963 5.38671 4.12901C5.38671 4.42839 5.26778 4.71551 5.05609 4.92721C4.8444 5.1389 4.55728 5.25783 4.2579 5.25783C3.95852 5.25783 3.6714 5.1389 3.45971 4.92721C3.24801 4.71551 3.12908 4.42839 3.12908 4.12901ZM17.8037 8.64427C17.8037 8.34489 17.9226 8.05777 18.1343 7.84608C18.346 7.63438 18.6331 7.51545 18.9325 7.51545C19.2319 7.51545 19.519 7.63438 19.7307 7.84608C19.9424 8.05777 20.0613 8.34489 20.0613 8.64427C20.0613 8.94365 19.9424 9.23076 19.7307 9.44246C19.519 9.65415 19.2319 9.77308 18.9325 9.77308C18.6331 9.77308 18.346 9.65415 18.1343 9.44246C17.9226 9.23076 17.8037 8.94365 17.8037 8.64427ZM18.9325 17.6748C19.2319 17.6748 19.519 17.7937 19.7307 18.0054C19.9424 18.2171 20.0613 18.5042 20.0613 18.8036C20.0613 19.103 19.9424 19.3901 19.7307 19.6018C19.519 19.8135 19.2319 19.9324 18.9325 19.9324C18.6331 19.9324 18.346 19.8135 18.1343 19.6018C17.9226 19.3901 17.8037 19.103 17.8037 18.8036C17.8037 18.5042 17.9226 18.2171 18.1343 18.0054C18.346 17.7937 18.6331 17.6748 18.9325 17.6748ZM7.89127 8.39734C7.55968 8.06575 7.55968 7.52956 7.89127 7.2015L8.18405 6.90872C8.77315 6.31962 9.14355 5.54709 9.23526 4.71811L9.34109 3.75157C9.394 3.28946 9.81378 2.95434 10.2794 3.00373C10.7451 3.05311 11.0802 3.47289 11.0273 3.93853L10.9214 4.90507C10.7874 6.11502 10.2441 7.24383 9.38342 8.10455L9.09063 8.39734C8.75904 8.72893 8.22286 8.72893 7.8948 8.39734H7.89127ZM14.6642 13.9709L14.9534 13.6781C15.8141 12.8173 16.9429 12.2741 18.1529 12.1401L19.1194 12.0342C19.5851 11.9813 20.0013 12.3164 20.0542 12.7821C20.1071 13.2477 19.772 13.664 19.3064 13.7169L18.3399 13.8227C17.5109 13.9144 16.7383 14.2848 16.1492 14.8739L15.8635 15.1702C15.5319 15.5018 14.9957 15.5018 14.6677 15.1702C14.3396 14.8386 14.3361 14.3024 14.6677 13.9744L14.6642 13.9709ZM19.8602 3.30004C20.1636 3.65632 20.1177 4.19251 19.7615 4.49235L19.4087 4.79219C18.8866 5.23313 18.2199 5.46595 17.5391 5.44831C16.9535 5.4342 16.4597 5.88573 16.4244 6.4713L16.3609 7.52956C16.2727 9.02877 15.0098 10.1858 13.5106 10.147C13.2426 10.1399 12.9815 10.2317 12.7804 10.4045L12.4277 10.7044C12.0714 11.0077 11.5352 10.9619 11.2354 10.6056C10.9355 10.2493 10.9779 9.71311 11.3342 9.41327L11.6869 9.11343C12.209 8.67249 12.8757 8.43967 13.5565 8.45731C14.1421 8.47142 14.6359 8.01989 14.6712 7.43432L14.7347 6.37606C14.8229 4.87685 16.0858 3.71982 17.585 3.75862C17.8531 3.76568 18.1141 3.67396 18.3152 3.50111L18.6679 3.20127C19.0242 2.8979 19.5604 2.94376 19.8602 3.30004ZM7.31275 10.1047L12.9568 15.7487C13.2284 16.0204 13.3449 16.4119 13.2602 16.7858C13.1755 17.1597 12.911 17.4702 12.5547 17.6042L11.1542 18.1298L4.93166 11.9072L5.45726 10.5068C5.59131 10.147 5.90173 9.88243 6.27565 9.8013C6.64957 9.72017 7.04113 9.83658 7.31275 10.1047ZM3.70055 15.1914L4.49777 13.0678L9.99368 18.5637L7.8701 19.3609L3.70055 15.1914ZM3.26666 16.3519L6.70954 19.7948L3.52417 20.9907C3.11145 21.1459 2.64228 21.0436 2.32833 20.7331C2.01438 20.4227 1.91561 19.95 2.07082 19.5373L3.26313 16.3519H3.26666Z" fill="white"/>
</svg>
