<svg width="21" height="24" viewBox="0 0 21 24" fill="none" xmlns="http://www.w3.org/2000/svg">
<path d="M2 4.12881C2 3.50444 2.50444 3 3.12882 3H18.9322C19.5566 3 20.061 3.50444 20.061 4.12881C20.061 4.75319 19.5566 5.25762 18.9322 5.25762V18.8034C19.5566 18.8034 20.061 19.3078 20.061 19.9322C20.061 20.5566 19.5566 21.061 18.9322 21.061H12.7237V19.3678C12.7237 18.433 11.9653 17.6746 11.0305 17.6746C10.0957 17.6746 9.3373 18.433 9.3373 19.3678V21.061H3.12882C2.50444 21.061 2 20.5566 2 19.9322C2 19.3078 2.50444 18.8034 3.12882 18.8034V5.25762C2.50444 5.25762 2 4.75319 2 4.12881ZM5.38645 6.95084V8.07966C5.38645 8.39008 5.64043 8.64406 5.95085 8.64406H7.07967C7.39009 8.64406 7.64408 8.39008 7.64408 8.07966V6.95084C7.64408 6.64042 7.39009 6.38644 7.07967 6.38644H5.95085C5.64043 6.38644 5.38645 6.64042 5.38645 6.95084ZM10.4661 6.38644C10.1557 6.38644 9.90171 6.64042 9.90171 6.95084V8.07966C9.90171 8.39008 10.1557 8.64406 10.4661 8.64406H11.5949C11.9054 8.64406 12.1593 8.39008 12.1593 8.07966V6.95084C12.1593 6.64042 11.9054 6.38644 11.5949 6.38644H10.4661ZM14.417 6.95084V8.07966C14.417 8.39008 14.6709 8.64406 14.9814 8.64406H16.1102C16.4206 8.64406 16.6746 8.39008 16.6746 8.07966V6.95084C16.6746 6.64042 16.4206 6.38644 16.1102 6.38644H14.9814C14.6709 6.38644 14.417 6.64042 14.417 6.95084ZM5.95085 9.77287C5.64043 9.77287 5.38645 10.0269 5.38645 10.3373V11.4661C5.38645 11.7765 5.64043 12.0305 5.95085 12.0305H7.07967C7.39009 12.0305 7.64408 11.7765 7.64408 11.4661V10.3373C7.64408 10.0269 7.39009 9.77287 7.07967 9.77287H5.95085ZM9.90171 10.3373V11.4661C9.90171 11.7765 10.1557 12.0305 10.4661 12.0305H11.5949C11.9054 12.0305 12.1593 11.7765 12.1593 11.4661V10.3373C12.1593 10.0269 11.9054 9.77287 11.5949 9.77287H10.4661C10.1557 9.77287 9.90171 10.0269 9.90171 10.3373ZM14.9814 9.77287C14.6709 9.77287 14.417 10.0269 14.417 10.3373V11.4661C14.417 11.7765 14.6709 12.0305 14.9814 12.0305H16.1102C16.4206 12.0305 16.6746 11.7765 16.6746 11.4661V10.3373C16.6746 10.0269 16.4206 9.77287 16.1102 9.77287H14.9814ZM13.5704 16.5457C14.0395 16.5457 14.4275 16.1612 14.3111 15.7062C13.9372 14.2423 12.6109 13.1593 11.0305 13.1593C9.45018 13.1593 8.12029 14.2423 7.7499 15.7062C7.63349 16.1577 8.02505 16.5457 8.49069 16.5457H13.5704Z" fill="white"/>
</svg>
