<svg width="21" height="24" viewBox="0 0 21 24" fill="none" xmlns="http://www.w3.org/2000/svg">
<path d="M14.7522 3.04254C14.9285 3.11662 15.0555 3.27536 15.0908 3.46232L15.7928 7.26853L19.599 7.96699C19.786 8.00226 19.9447 8.12925 20.0188 8.30563C20.0929 8.48201 20.0717 8.68308 19.9623 8.84182L17.7647 12.0307L19.9623 15.2161C20.0717 15.3748 20.0929 15.5759 20.0188 15.7523C19.9447 15.9286 19.786 16.0556 19.599 16.0909L15.7928 16.7929L15.0908 20.5991C15.0555 20.7861 14.9285 20.9448 14.7522 21.0189C14.5758 21.093 14.3747 21.0718 14.216 20.9624L11.0306 18.7648L7.84523 20.9624C7.68649 21.0718 7.48542 21.093 7.30904 21.0189C7.13266 20.9448 7.00567 20.7861 6.9704 20.5991L6.26841 16.7929L2.46219 16.0909C2.27523 16.0556 2.11649 15.9286 2.04242 15.7523C1.96834 15.5759 1.9895 15.3748 2.09886 15.2161L4.29652 12.0307L2.09886 8.84534C1.9895 8.6866 1.96834 8.48553 2.04242 8.30916C2.11649 8.13278 2.27523 8.00579 2.46219 7.97051L6.26841 7.26853L6.9704 3.46232C7.00567 3.27536 7.13266 3.11662 7.30904 3.04254C7.48542 2.96846 7.68649 2.98962 7.84523 3.09898L11.0306 5.29664L14.216 3.09898C14.3747 2.98962 14.5758 2.96846 14.7522 3.04254ZM7.64416 12.0307C7.64416 11.1326 8.00094 10.2712 8.63602 9.63614C9.2711 9.00106 10.1325 8.64427 11.0306 8.64427C11.9287 8.64427 12.7901 9.00106 13.4252 9.63614C14.0603 10.2712 14.417 11.1326 14.417 12.0307C14.417 12.9289 14.0603 13.7902 13.4252 14.4253C12.7901 15.0604 11.9287 15.4172 11.0306 15.4172C10.1325 15.4172 9.2711 15.0604 8.63602 14.4253C8.00094 13.7902 7.64416 12.9289 7.64416 12.0307ZM15.5459 12.0307C15.5459 10.8332 15.0701 9.68472 14.2234 8.83795C13.3766 7.99117 12.2281 7.51546 11.0306 7.51546C9.83308 7.51546 8.68461 7.99117 7.83783 8.83795C6.99106 9.68472 6.51534 10.8332 6.51534 12.0307C6.51534 13.2282 6.99106 14.3767 7.83783 15.2235C8.68461 16.0703 9.83308 16.546 11.0306 16.546C12.2281 16.546 13.3766 16.0703 14.2234 15.2235C15.0701 14.3767 15.5459 13.2282 15.5459 12.0307Z" fill="white"/>
</svg>
