<svg width="21" height="24" viewBox="0 0 21 24" fill="none" xmlns="http://www.w3.org/2000/svg">
<g clip-path="url(#clip0_256_136)">
<path d="M19.9523 -0.071167C19.1953 -0.071167 13.8962 1.44285 13.8962 8.25593V13.555C13.8962 15.2251 15.2541 16.583 16.9242 16.583H18.4382V22.6391C18.4382 23.4765 19.1148 24.1531 19.9523 24.1531C20.7897 24.1531 21.4663 23.4765 21.4663 22.6391V16.583V11.284V1.44285C21.4663 0.605409 20.7897 -0.071167 19.9523 -0.071167ZM3.29806 0.685841C3.29806 0.297875 3.00945 -0.023854 2.62148 -0.0664357C2.23351 -0.109017 1.88813 0.146473 1.80296 0.520246L0.369377 6.96901C0.303139 7.26708 0.27002 7.56989 0.27002 7.87269C0.27002 10.0444 1.93071 11.8281 4.05507 12.022V22.6391C4.05507 23.4765 4.73164 24.1531 5.56909 24.1531C6.40653 24.1531 7.08311 23.4765 7.08311 22.6391V12.022C9.20746 11.8281 10.8682 10.0444 10.8682 7.87269C10.8682 7.56989 10.835 7.26708 10.7688 6.96901L9.33521 0.520246C9.25004 0.141742 8.8952 -0.109017 8.51196 -0.0664357C8.12872 -0.023854 7.84011 0.297875 7.84011 0.685841V7.03525C7.84011 7.29074 7.63194 7.49892 7.37645 7.49892C7.13515 7.49892 6.93643 7.3144 6.91278 7.0731L6.32136 0.619603C6.28825 0.226905 5.96178 -0.071167 5.56909 -0.071167C5.17639 -0.071167 4.84993 0.226905 4.81681 0.619603L4.23013 7.0731C4.20647 7.3144 4.00775 7.49892 3.76646 7.49892C3.51097 7.49892 3.30279 7.29074 3.30279 7.03525V0.685841H3.29806ZM5.58328 7.87742H5.56909H5.55489L5.56909 7.8443L5.58328 7.87742Z" fill="white"/>
</g>
<defs>
<clipPath id="clip0_256_136">
<rect width="21" height="24" fill="white"/>
</clipPath>
</defs>
</svg>
