<svg width="26" height="26" viewBox="0 0 26 26" fill="none" xmlns="http://www.w3.org/2000/svg">
<g clip-path="url(#clip0_51_1171)">
<path d="M12.0765 5.14981L12.8026 7.77707L12.7528 7.76371L9.99225 7.02404C9.14493 6.797 8.64253 5.92681 8.86957 5.07949C9.09661 4.23217 9.96679 3.72977 10.8141 3.95681L10.8985 3.97941C11.4697 4.13248 11.9215 4.57817 12.0765 5.14981ZM7.02923 4.58638C6.88129 5.13848 6.87577 5.69586 6.98637 6.21861L5.39141 5.79125C4.71278 5.60941 4.01761 6.01077 3.83577 6.68939L3.17828 9.14318C2.99644 9.8218 3.3978 10.517 4.07643 10.6988L21.2529 15.3012C21.9315 15.4831 22.6267 15.0817 22.8086 14.4031L23.466 11.9493C23.6479 11.2707 23.2465 10.5755 22.5679 10.3937L20.9729 9.9663C21.3301 9.56889 21.604 9.08341 21.7519 8.53131C22.2512 6.66797 21.1454 4.75259 19.282 4.25331L19.1977 4.23071C17.9746 3.90299 16.6661 4.24686 15.7625 5.13479L14.4163 6.46299L13.9135 4.64345C13.5759 3.41883 12.6146 2.46679 11.3916 2.13907L11.3072 2.11647C9.44389 1.61719 7.52851 2.72303 7.02923 4.58638ZM19.9116 8.0382C19.6846 8.88552 18.8144 9.38792 17.9671 9.16088L15.2065 8.4212L15.1567 8.40785L17.0991 6.49561C17.523 6.07909 18.1333 5.91798 18.7046 6.07105L18.7889 6.09365C19.6362 6.32069 20.1386 7.19087 19.9116 8.0382ZM3.74768 11.9257L1.93958 18.6736C1.66734 19.6896 2.27079 20.7348 3.28681 21.0071L8.80782 22.4864L11.109 13.8982L3.74768 11.9257ZM11.2616 23.1439L16.7826 24.6233C17.7986 24.8955 18.8438 24.2921 19.1161 23.276L20.9242 16.5281L13.5628 14.5557L11.2616 23.1439Z" fill="black"/>
</g>
<defs>
<clipPath id="clip0_51_1171">
<rect width="20.3228" height="20.3228" fill="white" transform="translate(5.47949 0.554932) rotate(15)"/>
</clipPath>
</defs>
</svg>
